<svg width="32" height="32" viewBox="0 0 32 32" fill="none" xmlns="http://www.w3.org/2000/svg">
<g id="arrow icon">
<path id="Vector" d="M27.084 15.0307C27.2112 14.9104 27.361 14.8164 27.5246 14.7539C27.6883 14.6915 27.8626 14.6619 28.0377 14.6669C28.2127 14.6718 28.3851 14.7112 28.545 14.7828C28.7048 14.8544 28.849 14.9567 28.9693 15.084C29.0896 15.2113 29.1836 15.3611 29.246 15.5247C29.3085 15.6883 29.338 15.8627 29.3331 16.0377C29.3281 16.2128 29.2887 16.3852 29.2172 16.545C29.1456 16.7049 29.0432 16.8491 28.916 16.9694L16.916 28.3027C16.6684 28.5367 16.3406 28.6671 16 28.6671C15.6593 28.6671 15.3315 28.5367 15.084 28.3027L3.08262 16.9694C2.95254 16.8499 2.84749 16.7057 2.77359 16.5453C2.6997 16.3848 2.65841 16.2113 2.65214 16.0348C2.64587 15.8583 2.67473 15.6823 2.73706 15.517C2.79939 15.3517 2.89393 15.2005 3.01521 15.072C3.13648 14.9436 3.28206 14.8405 3.4435 14.7689C3.60493 14.6972 3.77901 14.6583 3.9556 14.6544C4.1322 14.6506 4.3078 14.6819 4.4722 14.7465C4.6366 14.811 4.78654 14.9077 4.91328 15.0307L16 25.5L27.084 15.0307Z" fill="#AC4DFF"/>
</g>
</svg>
