<svg width="32" height="32" viewBox="0 0 32 32" fill="none" xmlns="http://www.w3.org/2000/svg">
<g id="dashicons:email">
<path id="Vector" d="M6.19202 6.40002H27.392C29.392 6.40002 30.4 7.34402 30.4 9.26402V22.736C30.4 24.64 29.392 25.6 27.392 25.6H6.19202C4.19202 25.6 3.18402 24.64 3.18402 22.736V9.26402C3.18402 7.34402 4.19202 6.40002 6.19202 6.40002ZM16.784 20.16L27.568 11.312C27.952 10.992 28.256 10.256 27.776 9.60002C27.312 8.94402 26.464 8.92802 25.904 9.32802L16.784 15.504L7.68002 9.32802C7.12002 8.92802 6.27202 8.94402 5.80802 9.60002C5.32802 10.256 5.63202 10.992 6.01602 11.312L16.784 20.16Z" fill="white" fill-opacity="0.3"/>
</g>
</svg>
