<svg width="32" height="32" viewBox="0 0 32 32" fill="none" xmlns="http://www.w3.org/2000/svg">
<g id="key icon">
<path id="Vector" d="M7.99998 29.3333C7.26665 29.3333 6.63865 29.072 6.11598 28.5493C5.59332 28.0267 5.33243 27.3991 5.33332 26.6667V13.3333C5.33332 12.6 5.59465 11.972 6.11731 11.4493C6.63998 10.9267 7.26754 10.6658 7.99998 10.6667H9.33331V8C9.33331 6.15555 9.98354 4.58311 11.284 3.28266C12.5844 1.98222 14.1564 1.33244 16 1.33333C17.8444 1.33333 19.4169 1.98355 20.7173 3.284C22.0178 4.58444 22.6675 6.15644 22.6666 8V10.6667H24C24.7333 10.6667 25.3613 10.928 25.884 11.4507C26.4066 11.9733 26.6675 12.6009 26.6666 13.3333V26.6667C26.6666 27.4 26.4053 28.028 25.8826 28.5507C25.36 29.0733 24.7324 29.3342 24 29.3333H7.99998ZM16 22.6667C16.7333 22.6667 17.3613 22.4053 17.884 21.8827C18.4066 21.36 18.6675 20.7324 18.6666 20C18.6666 19.2667 18.4053 18.6387 17.8826 18.116C17.36 17.5933 16.7324 17.3324 16 17.3333C15.2666 17.3333 14.6386 17.5947 14.116 18.1173C13.5933 18.64 13.3324 19.2676 13.3333 20C13.3333 20.7333 13.5946 21.3613 14.1173 21.884C14.64 22.4067 15.2675 22.6675 16 22.6667ZM12 10.6667H20V8C20 6.88888 19.6111 5.94444 18.8333 5.16666C18.0555 4.38888 17.1111 4 16 4C14.8889 4 13.9444 4.38888 13.1666 5.16666C12.3889 5.94444 12 6.88888 12 8V10.6667Z" fill="white" fill-opacity="0.3"/>
</g>
</svg>
