<svg width="32" height="32" viewBox="0 0 32 32" fill="none" xmlns="http://www.w3.org/2000/svg">
<g clip-path="url(#clip0_37_297)">
<path d="M14.5155 4.48885C16.441 4.48709 18.3237 5.05644 19.9255 6.12489C21.5273 7.19333 22.7762 8.71285 23.5143 10.4912C24.2523 12.2696 24.4464 14.2269 24.0718 16.1156C23.6972 18.0043 22.7709 19.7394 21.4101 21.1015C20.0492 22.4637 18.3149 23.3916 16.4266 23.7678C14.5382 24.1441 12.5807 23.9519 10.8017 23.2155C9.02263 22.479 7.50197 21.2315 6.43206 19.6307C5.36215 18.0298 4.79108 16.1476 4.79108 14.2222C4.80275 11.6459 5.83075 9.17828 7.65166 7.35571C9.47257 5.53313 11.9392 4.50287 14.5155 4.48885ZM14.5155 2.66663C12.23 2.66663 9.9959 3.34435 8.0956 4.61409C6.1953 5.88383 4.71419 7.68856 3.83958 9.80006C2.96497 11.9116 2.73613 14.235 3.182 16.4766C3.62788 18.7181 4.72844 20.7771 6.34451 22.3932C7.96058 24.0093 10.0196 25.1098 12.2611 25.5557C14.5027 26.0016 16.8261 25.7727 18.9376 24.8981C21.0491 24.0235 22.8539 22.5424 24.1236 20.6421C25.3934 18.7418 26.0711 16.5077 26.0711 14.2222C26.0711 11.1575 24.8536 8.21826 22.6865 6.05117C20.5194 3.88408 17.5802 2.66663 14.5155 2.66663Z" fill="#AC4DFF"/>
<path d="M31.1112 29.5912L24.5601 22.9956L23.2979 24.2489L29.849 30.8445C29.9313 30.9274 30.0291 30.9932 30.1368 31.0383C30.2446 31.0834 30.3601 31.1068 30.4769 31.1072C30.5937 31.1076 30.7095 31.085 30.8175 31.0407C30.9256 30.9964 31.0239 30.9312 31.1067 30.8489C31.1896 30.7666 31.2555 30.6688 31.3006 30.5611C31.3456 30.4533 31.369 30.3378 31.3695 30.221C31.3699 30.1042 31.3473 29.9884 31.303 29.8804C31.2586 29.7723 31.1935 29.674 31.1112 29.5912Z" fill="#AC4DFF"/>
</g>
<defs>
<clipPath id="clip0_37_297">
<rect width="32" height="32" fill="white"/>
</clipPath>
</defs>
</svg>
