<svg width="32" height="32" viewBox="0 0 32 32" fill="none" xmlns="http://www.w3.org/2000/svg">
<g id="Property 1=Variant2">
<path id="Vector" fill-rule="evenodd" clip-rule="evenodd" d="M17.493 1.77471C17.3863 1.54342 17.2155 1.34755 17.001 1.21025C16.7864 1.07296 16.537 1 16.2823 1C16.0276 1 15.7782 1.07296 15.5637 1.21025C15.3491 1.34755 15.1784 1.54342 15.0717 1.77471L11.245 10.068L2.17699 11.144C1.92399 11.1739 1.68484 11.2756 1.48785 11.4372C1.29086 11.5987 1.14428 11.8133 1.06544 12.0556C0.986611 12.2978 0.978829 12.5576 1.04302 12.8041C1.10721 13.0507 1.24069 13.2737 1.42765 13.4467L8.13432 19.6467L6.35432 28.6067C6.30488 28.8565 6.32799 29.1152 6.42092 29.3522C6.51384 29.5893 6.6727 29.7948 6.8787 29.9444C7.08471 30.094 7.32925 30.1815 7.58342 30.1966C7.83759 30.2117 8.09075 30.1536 8.31299 30.0294L16.2823 25.568L24.2517 30.0294C24.474 30.1542 24.7275 30.2126 24.9821 30.1977C25.2366 30.1828 25.4816 30.0952 25.6879 29.9453C25.8942 29.7954 26.0532 29.5895 26.146 29.352C26.2388 29.1146 26.2616 28.8554 26.2117 28.6054L24.4317 19.648L31.137 13.4467C31.324 13.2737 31.4574 13.0507 31.5216 12.8041C31.5858 12.5576 31.578 12.2978 31.4992 12.0556C31.4204 11.8133 31.2738 11.5987 31.0768 11.4372C30.8798 11.2756 30.6407 11.1739 30.3877 11.144L21.3183 10.0667L17.493 1.77471Z" fill="#AC4DFF"/>
</g>
</svg>
